<svg width="13" height="9" viewBox="0 0 13 9" fill="none" xmlns="http://www.w3.org/2000/svg">
<g clip-path="url(#clip0_7886_4255)">
<path d="M12.7283 1.40538C12.5788 0.852169 12.1384 0.41654 11.579 0.268694C10.5652 0 6.5 0 6.5 0C6.5 0 2.43479 0 1.42098 0.268694C0.861664 0.41654 0.421138 0.852169 0.27165 1.40538C0 2.40803 0 4.5 0 4.5C0 4.5 0 6.59194 0.27165 7.59469C0.421138 8.14783 0.861664 8.58346 1.42098 8.73137C2.43479 9 6.5 9 6.5 9C6.5 9 10.5652 9 11.579 8.73137C12.1384 8.58346 12.5788 8.14783 12.7283 7.59469C13 6.59194 13 4.5 13 4.5C13 4.5 13 2.40803 12.7283 1.40538Z" fill="#1A202C"/>
<path d="M5.16992 6.39844L8.56765 4.49918L5.16992 2.59975V6.39844Z" fill="white" fill-opacity="0.73"/>
</g>
<defs>
<clipPath id="clip0_7886_4255">
<rect width="13" height="9" fill="white"/>
</clipPath>
</defs>
</svg>
